<svg width="47" height="21" viewBox="0 0 47 21" fill="none" xmlns="http://www.w3.org/2000/svg">
<path d="M4.58991 0.205637L11.3663 0.180664C9.97421 4.18611 7.49022 11.1362 7.32931 11.9932C7.01514 13.6746 7.10581 14.6933 7.72649 15.4295C8.39697 16.2182 9.4557 16.4299 10.2948 16.4667C11.941 16.5219 14.4952 16.6126 16.1554 16.4811C16.1554 16.4811 16.2538 16.5771 16.6663 15.5609L20.1783 5.11024H34.7374C34.7374 5.11024 34.2265 8.00226 31.2892 8.26517C29.4979 8.42371 27.6987 8.46498 25.9023 8.38873L21.9663 20.4905L5.49155 20.622C4.3728 20.5431 2.59889 20.2197 1.38947 18.8539C0.112355 17.4079 0.205584 15.0101 0.344789 13.8586C0.388211 13.4984 1.10467 10.3869 1.21323 10.0464L4.58991 0.205637Z" fill="#D9211C"/>
<path d="M12.8986 0.246582L8.96639 12.1407C8.96639 12.1407 8.22183 14.5502 9.5462 14.821C11.1273 15.1444 12.813 15.1181 13.9778 15.084C14.6789 15.0655 15.1272 15.0301 15.1272 15.0301L15.6559 13.4526L18.6852 4.38217C19.0862 3.20959 18.9585 3.47249 20.0287 3.40677H37.4191C37.3632 3.81786 37.2674 4.22214 37.133 4.61353C36.059 7.88545 32.999 10.0242 29.6441 9.92827L26.883 9.91381L25.6697 14.449L30.5227 20.3645H39.3348L34.0348 13.5946H34.4179C34.4179 13.5946 42.783 13.5288 46.6143 0.251837L12.8986 0.246582Z" fill="#1D1D1B"/>
</svg>
