<svg width="500" height="46" viewBox="0 0 500 46" fill="none" xmlns="http://www.w3.org/2000/svg">
<g filter="url(#filter0_d_360_24453)">
<path d="M19.64 43.72C13.64 43.72 8.96 42.06 5.6 38.74C2.28 35.42 0.62 30.68 0.62 24.52V0.999997H10.34V24.16C10.34 31.68 13.46 35.44 19.7 35.44C22.74 35.44 25.06 34.54 26.66 32.74C28.26 30.9 29.06 28.04 29.06 24.16V0.999997H38.66V24.52C38.66 30.68 36.98 35.42 33.62 38.74C30.3 42.06 25.64 43.72 19.64 43.72ZM75.0252 43L66.9252 31.3H66.4452H57.9852V43H48.2652V0.999997H66.4452C70.1652 0.999997 73.3852 1.62 76.1052 2.86C78.8652 4.1 80.9852 5.86 82.4652 8.14C83.9452 10.42 84.6852 13.12 84.6852 16.24C84.6852 19.36 83.9252 22.06 82.4052 24.34C80.9252 26.58 78.8052 28.3 76.0452 29.5L85.4652 43H75.0252ZM74.8452 16.24C74.8452 13.88 74.0852 12.08 72.5652 10.84C71.0452 9.56 68.8252 8.92 65.9052 8.92H57.9852V23.56H65.9052C68.8252 23.56 71.0452 22.92 72.5652 21.64C74.0852 20.36 74.8452 18.56 74.8452 16.24ZM123.226 21.16C125.626 21.92 127.506 23.2 128.866 25C130.226 26.76 130.906 28.94 130.906 31.54C130.906 35.22 129.466 38.06 126.586 40.06C123.746 42.02 119.586 43 114.106 43H92.3863V0.999997H112.906C118.026 0.999997 121.946 1.98 124.666 3.94C127.426 5.9 128.806 8.56 128.806 11.92C128.806 13.96 128.306 15.78 127.306 17.38C126.346 18.98 124.986 20.24 123.226 21.16ZM102.046 8.32V18.22H111.706C114.106 18.22 115.926 17.8 117.166 16.96C118.406 16.12 119.026 14.88 119.026 13.24C119.026 11.6 118.406 10.38 117.166 9.58C115.926 8.74 114.106 8.32 111.706 8.32H102.046ZM113.386 35.68C115.946 35.68 117.866 35.26 119.146 34.42C120.466 33.58 121.126 32.28 121.126 30.52C121.126 27.04 118.546 25.3 113.386 25.3H102.046V35.68H113.386ZM165.925 34H146.425L142.705 43H132.745L151.465 0.999997H161.065L179.845 43H169.645L165.925 34ZM162.865 26.62L156.205 10.54L149.545 26.62H162.865ZM222.723 0.999997V43H214.743L193.803 17.5V43H184.203V0.999997H192.243L213.123 26.5V0.999997H222.723Z" fill="#4F4F4F"/>
<path d="M276.412 43L268.312 31.3H267.832H259.372V43H249.652V0.999997H267.832C271.552 0.999997 274.772 1.62 277.492 2.86C280.252 4.1 282.372 5.86 283.852 8.14C285.332 10.42 286.072 13.12 286.072 16.24C286.072 19.36 285.312 22.06 283.792 24.34C282.312 26.58 280.192 28.3 277.432 29.5L286.852 43H276.412ZM276.232 16.24C276.232 13.88 275.472 12.08 273.952 10.84C272.432 9.56 270.212 8.92 267.292 8.92H259.372V23.56H267.292C270.212 23.56 272.432 22.92 273.952 21.64C275.472 20.36 276.232 18.56 276.232 16.24ZM321.433 34H301.933L298.213 43H288.253L306.973 0.999997H316.573L335.353 43H325.153L321.433 34ZM318.373 26.62L311.713 10.54L305.053 26.62H318.373ZM359.225 43.72C354.945 43.72 351.065 42.8 347.585 40.96C344.145 39.08 341.425 36.5 339.425 33.22C337.465 29.9 336.485 26.16 336.485 22C336.485 17.84 337.465 14.12 339.425 10.84C341.425 7.52 344.145 4.94 347.585 3.1C351.065 1.22 354.965 0.279999 359.285 0.279999C362.925 0.279999 366.205 0.919999 369.125 2.2C372.085 3.48 374.565 5.32 376.565 7.72L370.325 13.48C367.485 10.2 363.965 8.56 359.765 8.56C357.165 8.56 354.845 9.14 352.805 10.3C350.765 11.42 349.165 13 348.005 15.04C346.885 17.08 346.325 19.4 346.325 22C346.325 24.6 346.885 26.92 348.005 28.96C349.165 31 350.765 32.6 352.805 33.76C354.845 34.88 357.165 35.44 359.765 35.44C363.965 35.44 367.485 33.78 370.325 30.46L376.565 36.22C374.565 38.66 372.085 40.52 369.125 41.8C366.165 43.08 362.865 43.72 359.225 43.72ZM415.648 35.2V43H383.128V0.999997H414.868V8.8H392.788V17.92H412.288V25.48H392.788V35.2H415.648ZM450.142 43L442.042 31.3H441.562H433.102V43H423.382V0.999997H441.562C445.282 0.999997 448.502 1.62 451.222 2.86C453.982 4.1 456.102 5.86 457.582 8.14C459.062 10.42 459.802 13.12 459.802 16.24C459.802 19.36 459.042 22.06 457.522 24.34C456.042 26.58 453.922 28.3 451.162 29.5L460.582 43H450.142ZM449.962 16.24C449.962 13.88 449.202 12.08 447.682 10.84C446.162 9.56 443.942 8.92 441.022 8.92H433.102V23.56H441.022C443.942 23.56 446.162 22.92 447.682 21.64C449.202 20.36 449.962 18.56 449.962 16.24ZM481.303 43.72C477.983 43.72 474.763 43.28 471.643 42.4C468.563 41.48 466.083 40.3 464.203 38.86L467.503 31.54C469.303 32.86 471.443 33.92 473.923 34.72C476.403 35.52 478.883 35.92 481.363 35.92C484.123 35.92 486.163 35.52 487.483 34.72C488.803 33.88 489.463 32.78 489.463 31.42C489.463 30.42 489.063 29.6 488.263 28.96C487.503 28.28 486.503 27.74 485.263 27.34C484.063 26.94 482.423 26.5 480.343 26.02C477.143 25.26 474.523 24.5 472.483 23.74C470.443 22.98 468.683 21.76 467.203 20.08C465.763 18.4 465.043 16.16 465.043 13.36C465.043 10.92 465.703 8.72 467.023 6.76C468.343 4.76 470.323 3.18 472.963 2.02C475.643 0.859999 478.903 0.279999 482.743 0.279999C485.423 0.279999 488.043 0.599999 490.603 1.24C493.163 1.88 495.403 2.8 497.323 4L494.323 11.38C490.443 9.18 486.563 8.08 482.683 8.08C479.963 8.08 477.943 8.52 476.623 9.4C475.343 10.28 474.703 11.44 474.703 12.88C474.703 14.32 475.443 15.4 476.923 16.12C478.443 16.8 480.743 17.48 483.823 18.16C487.023 18.92 489.643 19.68 491.683 20.44C493.723 21.2 495.463 22.4 496.903 24.04C498.383 25.68 499.123 27.9 499.123 30.7C499.123 33.1 498.443 35.3 497.083 37.3C495.763 39.26 493.763 40.82 491.083 41.98C488.403 43.14 485.143 43.72 481.303 43.72Z" fill="#F05454"/>
</g>
<defs>
<filter id="filter0_d_360_24453" x="0.619141" y="0.280029" width="498.504" height="45.4399" filterUnits="userSpaceOnUse" color-interpolation-filters="sRGB">
<feFlood flood-opacity="0" result="BackgroundImageFix"/>
<feColorMatrix in="SourceAlpha" type="matrix" values="0 0 0 0 0 0 0 0 0 0 0 0 0 0 0 0 0 0 127 0" result="hardAlpha"/>
<feOffset dy="2"/>
<feColorMatrix type="matrix" values="0 0 0 0 0.133333 0 0 0 0 0.133333 0 0 0 0 0.133333 0 0 0 0.1 0"/>
<feBlend mode="normal" in2="BackgroundImageFix" result="effect1_dropShadow_360_24453"/>
<feBlend mode="normal" in="SourceGraphic" in2="effect1_dropShadow_360_24453" result="shape"/>
</filter>
</defs>
</svg>
