<svg width="354" height="32" viewBox="0 0 354 32" fill="none" xmlns="http://www.w3.org/2000/svg">
<path d="M10.53 14.63H6.61V24.5H0.975V-1.66893e-06H6.61V9.905H10.67L17.11 -1.66893e-06H23.095L15.08 11.83L23.34 24.5H16.9L10.53 14.63ZM32.6521 5.39C35.5687 5.39 37.8087 6.09 39.3721 7.49C40.9354 8.86667 41.7171 10.955 41.7171 13.755V24.5H36.6071V22.155C35.5804 23.905 33.6671 24.78 30.8671 24.78C29.4204 24.78 28.1604 24.535 27.0871 24.045C26.0371 23.555 25.2321 22.8783 24.6721 22.015C24.1121 21.1517 23.8321 20.1717 23.8321 19.075C23.8321 17.325 24.4854 15.9483 25.7921 14.945C27.1221 13.9417 29.1637 13.44 31.9171 13.44H36.2571C36.2571 12.25 35.8954 11.34 35.1721 10.71C34.4487 10.0567 33.3637 9.73 31.9171 9.73C30.9137 9.73 29.9221 9.89333 28.9421 10.22C27.9854 10.5233 27.1687 10.9433 26.4921 11.48L24.5321 7.665C25.5587 6.94167 26.7837 6.38167 28.2071 5.985C29.6537 5.58833 31.1354 5.39 32.6521 5.39ZM32.2321 21.105C33.1654 21.105 33.9937 20.895 34.7171 20.475C35.4404 20.0317 35.9537 19.39 36.2571 18.55V16.625H32.5121C30.2721 16.625 29.1521 17.36 29.1521 18.83C29.1521 19.53 29.4204 20.09 29.9571 20.51C30.5171 20.9067 31.2754 21.105 32.2321 21.105ZM61.8701 10.15H55.5001V24.5H50.0751V10.15H43.7051V5.67H61.8701V10.15ZM81.8895 15.155C81.8895 15.225 81.8545 15.715 81.7845 16.625H67.5395C67.7961 17.7917 68.4028 18.7133 69.3595 19.39C70.3161 20.0667 71.5061 20.405 72.9295 20.405C73.9095 20.405 74.7728 20.265 75.5195 19.985C76.2895 19.6817 77.0011 19.215 77.6545 18.585L80.5595 21.735C78.7861 23.765 76.1961 24.78 72.7895 24.78C70.6661 24.78 68.7878 24.3717 67.1545 23.555C65.5211 22.715 64.2611 21.56 63.3745 20.09C62.4878 18.62 62.0445 16.9517 62.0445 15.085C62.0445 13.2417 62.4761 11.585 63.3395 10.115C64.2261 8.62167 65.4278 7.46667 66.9445 6.65C68.4845 5.81 70.1995 5.39 72.0895 5.39C73.9328 5.39 75.6011 5.78667 77.0945 6.58C78.5878 7.37333 79.7545 8.51667 80.5945 10.01C81.4578 11.48 81.8895 13.195 81.8895 15.155ZM72.1245 9.52C70.8878 9.52 69.8495 9.87 69.0095 10.57C68.1695 11.27 67.6561 12.2267 67.4695 13.44H76.7445C76.5578 12.25 76.0445 11.305 75.2045 10.605C74.3645 9.88167 73.3378 9.52 72.1245 9.52ZM100.75 10.15H91.0897V24.5H85.6647V5.67H100.75V10.15ZM111.267 24.78C109.284 24.78 107.499 24.3717 105.912 23.555C104.349 22.715 103.124 21.56 102.237 20.09C101.35 18.62 100.907 16.9517 100.907 15.085C100.907 13.2183 101.35 11.55 102.237 10.08C103.124 8.61 104.349 7.46667 105.912 6.65C107.499 5.81 109.284 5.39 111.267 5.39C113.25 5.39 115.024 5.81 116.587 6.65C118.15 7.46667 119.375 8.61 120.262 10.08C121.149 11.55 121.592 13.2183 121.592 15.085C121.592 16.9517 121.149 18.62 120.262 20.09C119.375 21.56 118.15 22.715 116.587 23.555C115.024 24.3717 113.25 24.78 111.267 24.78ZM111.267 20.3C112.667 20.3 113.81 19.8333 114.697 18.9C115.607 17.9433 116.062 16.6717 116.062 15.085C116.062 13.4983 115.607 12.2383 114.697 11.305C113.81 10.3483 112.667 9.87 111.267 9.87C109.867 9.87 108.712 10.3483 107.802 11.305C106.892 12.2383 106.437 13.4983 106.437 15.085C106.437 16.6717 106.892 17.9433 107.802 18.9C108.712 19.8333 109.867 20.3 111.267 20.3ZM136.032 5.39C137.782 5.39 139.369 5.79833 140.792 6.615C142.239 7.40833 143.371 8.54 144.187 10.01C145.004 11.4567 145.412 13.1483 145.412 15.085C145.412 17.0217 145.004 18.725 144.187 20.195C143.371 21.6417 142.239 22.7733 140.792 23.59C139.369 24.3833 137.782 24.78 136.032 24.78C133.629 24.78 131.739 24.0217 130.362 22.505V31.29H124.902V5.67H130.117V7.84C131.471 6.20667 133.442 5.39 136.032 5.39ZM135.087 20.3C136.487 20.3 137.631 19.8333 138.517 18.9C139.427 17.9433 139.882 16.6717 139.882 15.085C139.882 13.4983 139.427 12.2383 138.517 11.305C137.631 10.3483 136.487 9.87 135.087 9.87C133.687 9.87 132.532 10.3483 131.622 11.305C130.736 12.2383 130.292 13.4983 130.292 15.085C130.292 16.6717 130.736 17.9433 131.622 18.9C132.532 19.8333 133.687 20.3 135.087 20.3ZM148.829 5.67H154.254V16.87L163.424 5.67H168.429V24.5H163.004V13.3L153.869 24.5H148.829V5.67ZM173.268 5.67H178.693V16.87L187.863 5.67H192.868V24.5H187.443V13.3L178.308 24.5H173.268V5.67ZM223.029 10.15H216.659V24.5H211.234V10.15H204.864V5.67H223.029V10.15ZM233.563 24.78C231.58 24.78 229.795 24.3717 228.208 23.555C226.645 22.715 225.42 21.56 224.533 20.09C223.646 18.62 223.203 16.9517 223.203 15.085C223.203 13.2183 223.646 11.55 224.533 10.08C225.42 8.61 226.645 7.46667 228.208 6.65C229.795 5.81 231.58 5.39 233.563 5.39C235.546 5.39 237.32 5.81 238.883 6.65C240.446 7.46667 241.671 8.61 242.558 10.08C243.445 11.55 243.888 13.2183 243.888 15.085C243.888 16.9517 243.445 18.62 242.558 20.09C241.671 21.56 240.446 22.715 238.883 23.555C237.32 24.3717 235.546 24.78 233.563 24.78ZM233.563 20.3C234.963 20.3 236.106 19.8333 236.993 18.9C237.903 17.9433 238.358 16.6717 238.358 15.085C238.358 13.4983 237.903 12.2383 236.993 11.305C236.106 10.3483 234.963 9.87 233.563 9.87C232.163 9.87 231.008 10.3483 230.098 11.305C229.188 12.2383 228.733 13.4983 228.733 15.085C228.733 16.6717 229.188 17.9433 230.098 18.9C231.008 19.8333 232.163 20.3 233.563 20.3ZM261.618 14.665C263.835 15.4117 264.943 16.905 264.943 19.145C264.943 20.8483 264.302 22.1667 263.018 23.1C261.735 24.0333 259.822 24.5 257.278 24.5H247.233V5.67H256.858C259.215 5.67 261.058 6.10167 262.388 6.965C263.718 7.805 264.383 8.995 264.383 10.535C264.383 11.4683 264.138 12.2967 263.648 13.02C263.182 13.72 262.505 14.2683 261.618 14.665ZM252.238 13.405H256.368C258.282 13.405 259.238 12.7283 259.238 11.375C259.238 10.045 258.282 9.38 256.368 9.38H252.238V13.405ZM256.823 20.79C258.83 20.79 259.833 20.1017 259.833 18.725C259.833 18.0017 259.6 17.4767 259.133 17.15C258.667 16.8 257.932 16.625 256.928 16.625H252.238V20.79H256.823ZM275.911 5.39C278.827 5.39 281.067 6.09 282.631 7.49C284.194 8.86667 284.976 10.955 284.976 13.755V24.5H279.866V22.155C278.839 23.905 276.926 24.78 274.126 24.78C272.679 24.78 271.419 24.535 270.346 24.045C269.296 23.555 268.491 22.8783 267.931 22.015C267.371 21.1517 267.091 20.1717 267.091 19.075C267.091 17.325 267.744 15.9483 269.051 14.945C270.381 13.9417 272.422 13.44 275.176 13.44H279.516C279.516 12.25 279.154 11.34 278.431 10.71C277.707 10.0567 276.622 9.73 275.176 9.73C274.172 9.73 273.181 9.89333 272.201 10.22C271.244 10.5233 270.427 10.9433 269.751 11.48L267.791 7.665C268.817 6.94167 270.042 6.38167 271.466 5.985C272.912 5.58833 274.394 5.39 275.911 5.39ZM275.491 21.105C276.424 21.105 277.252 20.895 277.976 20.475C278.699 20.0317 279.212 19.39 279.516 18.55V16.625H275.771C273.531 16.625 272.411 17.36 272.411 18.83C272.411 19.53 272.679 20.09 273.216 20.51C273.776 20.9067 274.534 21.105 275.491 21.105ZM300.404 5.39C302.154 5.39 303.741 5.79833 305.164 6.615C306.611 7.40833 307.742 8.54 308.559 10.01C309.376 11.4567 309.784 13.1483 309.784 15.085C309.784 17.0217 309.376 18.725 308.559 20.195C307.742 21.6417 306.611 22.7733 305.164 23.59C303.741 24.3833 302.154 24.78 300.404 24.78C298.001 24.78 296.111 24.0217 294.734 22.505V31.29H289.274V5.67H294.489V7.84C295.842 6.20667 297.814 5.39 300.404 5.39ZM299.459 20.3C300.859 20.3 302.002 19.8333 302.889 18.9C303.799 17.9433 304.254 16.6717 304.254 15.085C304.254 13.4983 303.799 12.2383 302.889 11.305C302.002 10.3483 300.859 9.87 299.459 9.87C298.059 9.87 296.904 10.3483 295.994 11.305C295.107 12.2383 294.664 13.4983 294.664 15.085C294.664 16.6717 295.107 17.9433 295.994 18.9C296.904 19.8333 298.059 20.3 299.459 20.3ZM322.021 24.78C320.037 24.78 318.252 24.3717 316.666 23.555C315.102 22.715 313.877 21.56 312.991 20.09C312.104 18.62 311.661 16.9517 311.661 15.085C311.661 13.2183 312.104 11.55 312.991 10.08C313.877 8.61 315.102 7.46667 316.666 6.65C318.252 5.81 320.037 5.39 322.021 5.39C324.004 5.39 325.777 5.81 327.341 6.65C328.904 7.46667 330.129 8.61 331.016 10.08C331.902 11.55 332.346 13.2183 332.346 15.085C332.346 16.9517 331.902 18.62 331.016 20.09C330.129 21.56 328.904 22.715 327.341 23.555C325.777 24.3717 324.004 24.78 322.021 24.78ZM322.021 20.3C323.421 20.3 324.564 19.8333 325.451 18.9C326.361 17.9433 326.816 16.6717 326.816 15.085C326.816 13.4983 326.361 12.2383 325.451 11.305C324.564 10.3483 323.421 9.87 322.021 9.87C320.621 9.87 319.466 10.3483 318.556 11.305C317.646 12.2383 317.191 13.4983 317.191 15.085C317.191 16.6717 317.646 17.9433 318.556 18.9C319.466 19.8333 320.621 20.3 322.021 20.3ZM350.076 14.665C352.293 15.4117 353.401 16.905 353.401 19.145C353.401 20.8483 352.759 22.1667 351.476 23.1C350.193 24.0333 348.279 24.5 345.736 24.5H335.691V5.67H345.316C347.673 5.67 349.516 6.10167 350.846 6.965C352.176 7.805 352.841 8.995 352.841 10.535C352.841 11.4683 352.596 12.2967 352.106 13.02C351.639 13.72 350.963 14.2683 350.076 14.665ZM340.696 13.405H344.826C346.739 13.405 347.696 12.7283 347.696 11.375C347.696 10.045 346.739 9.38 344.826 9.38H340.696V13.405ZM345.281 20.79C347.288 20.79 348.291 20.1017 348.291 18.725C348.291 18.0017 348.058 17.4767 347.591 17.15C347.124 16.8 346.389 16.625 345.386 16.625H340.696V20.79H345.281Z" fill="#F05454"/>
</svg>
