<svg width="52" height="13" viewBox="0 0 52 13" fill="none" xmlns="http://www.w3.org/2000/svg">
<path d="M4.05273 6.5L2.67773 2.01953H2.64258C2.69206 2.93099 2.7168 3.53906 2.7168 3.84375V6.5H1.63477V0.789062H3.2832L4.63477 5.15625H4.6582L6.0918 0.789062H7.74023V6.5H6.61133V3.79688C6.61133 3.66927 6.61263 3.52214 6.61523 3.35547C6.62044 3.1888 6.63867 2.74609 6.66992 2.02734H6.63477L5.16211 6.5H4.05273ZM11.8613 6.5L11.6309 5.90625H11.5996C11.3991 6.15885 11.1921 6.33464 10.9785 6.43359C10.7676 6.52995 10.4915 6.57812 10.1504 6.57812C9.73112 6.57812 9.40039 6.45833 9.1582 6.21875C8.91862 5.97917 8.79883 5.63802 8.79883 5.19531C8.79883 4.73177 8.96029 4.39062 9.2832 4.17188C9.60872 3.95052 10.0983 3.82812 10.752 3.80469L11.5098 3.78125V3.58984C11.5098 3.14714 11.2832 2.92578 10.8301 2.92578C10.4811 2.92578 10.071 3.03125 9.59961 3.24219L9.20508 2.4375C9.70768 2.17448 10.265 2.04297 10.877 2.04297C11.4629 2.04297 11.9121 2.17057 12.2246 2.42578C12.5371 2.68099 12.6934 3.06901 12.6934 3.58984V6.5H11.8613ZM11.5098 4.47656L11.0488 4.49219C10.7025 4.5026 10.4447 4.5651 10.2754 4.67969C10.1061 4.79427 10.0215 4.96875 10.0215 5.20312C10.0215 5.53906 10.2142 5.70703 10.5996 5.70703C10.8757 5.70703 11.0957 5.6276 11.2598 5.46875C11.4264 5.3099 11.5098 5.09896 11.5098 4.83594V4.47656ZM16.9395 2.13281V3.02734H15.1152V6.5H13.9238V2.13281H16.9395ZM20.5254 6.5L20.2949 5.90625H20.2637C20.0632 6.15885 19.8561 6.33464 19.6426 6.43359C19.4316 6.52995 19.1556 6.57812 18.8145 6.57812C18.3952 6.57812 18.0645 6.45833 17.8223 6.21875C17.5827 5.97917 17.4629 5.63802 17.4629 5.19531C17.4629 4.73177 17.6243 4.39062 17.9473 4.17188C18.2728 3.95052 18.7624 3.82812 19.416 3.80469L20.1738 3.78125V3.58984C20.1738 3.14714 19.9473 2.92578 19.4941 2.92578C19.1452 2.92578 18.735 3.03125 18.2637 3.24219L17.8691 2.4375C18.3717 2.17448 18.929 2.04297 19.541 2.04297C20.127 2.04297 20.5762 2.17057 20.8887 2.42578C21.2012 2.68099 21.3574 3.06901 21.3574 3.58984V6.5H20.5254ZM20.1738 4.47656L19.7129 4.49219C19.3665 4.5026 19.1087 4.5651 18.9395 4.67969C18.7702 4.79427 18.6855 4.96875 18.6855 5.20312C18.6855 5.53906 18.8783 5.70703 19.2637 5.70703C19.5397 5.70703 19.7598 5.6276 19.9238 5.46875C20.0905 5.3099 20.1738 5.09896 20.1738 4.83594V4.47656ZM23.6738 3.8125C24.1243 3.8125 24.4434 3.77604 24.6309 3.70312C24.821 3.63021 24.916 3.51432 24.916 3.35547C24.916 3.21484 24.847 3.10938 24.709 3.03906C24.571 2.96875 24.3431 2.93359 24.0254 2.93359C23.8249 2.93359 23.597 2.95833 23.3418 3.00781C23.0892 3.05729 22.8587 3.125 22.6504 3.21094L22.2988 2.37891C22.6087 2.26172 22.9095 2.17839 23.2012 2.12891C23.4928 2.07682 23.8184 2.05078 24.1777 2.05078C24.722 2.05078 25.1582 2.15495 25.4863 2.36328C25.8145 2.57161 25.9785 2.85417 25.9785 3.21094C25.9785 3.70312 25.6882 4.02344 25.1074 4.17188V4.21094C25.4642 4.29948 25.7181 4.42578 25.8691 4.58984C26.0228 4.7513 26.0996 4.96354 26.0996 5.22656C26.0996 5.49219 26.0137 5.72786 25.8418 5.93359C25.6699 6.13932 25.4212 6.29818 25.0957 6.41016C24.7702 6.52214 24.3874 6.57812 23.9473 6.57812C23.2181 6.57812 22.6582 6.48828 22.2676 6.30859V5.32422C22.4915 5.42839 22.7363 5.51042 23.002 5.57031C23.2702 5.63021 23.5293 5.66016 23.7793 5.66016C24.1673 5.66016 24.4577 5.61719 24.6504 5.53125C24.8431 5.44271 24.9395 5.31771 24.9395 5.15625C24.9395 4.97917 24.8379 4.84896 24.6348 4.76562C24.4316 4.67969 24.1191 4.63672 23.6973 4.63672H23.2363V3.8125H23.6738ZM28.1855 2.13281V3.85938C28.1855 4.04167 28.1556 4.48698 28.0957 5.19531L30.1113 2.13281H31.5449V6.5H30.3926V4.75781C30.3926 4.44792 30.4186 4.01042 30.4707 3.44531L28.4629 6.5H27.0332V2.13281H28.1855ZM33.9902 2.13281V3.8125H35.6543V2.13281H36.8457V6.5H35.6543V4.69922H33.9902V6.5H32.7988V2.13281H33.9902ZM5.13086 12.5L4.7168 11.1406H2.63477L2.2207 12.5H0.916016L2.93164 6.76562H4.41211L6.43555 12.5H5.13086ZM4.42773 10.125C4.04492 8.89323 3.82878 8.19661 3.7793 8.03516C3.73242 7.8737 3.69857 7.74609 3.67773 7.65234C3.5918 7.98568 3.3457 8.8099 2.93945 10.125H4.42773ZM11.0957 9.27734C11.0957 9.51172 11.0215 9.71224 10.873 9.87891C10.7272 10.043 10.5111 10.1484 10.2246 10.1953V10.2266C10.5345 10.263 10.7793 10.3698 10.959 10.5469C11.1413 10.7214 11.2324 10.9375 11.2324 11.1953C11.2324 11.6198 11.0658 11.944 10.7324 12.168C10.3991 12.3893 9.92253 12.5 9.30273 12.5H7.06445V8.13281H9.30273C9.90169 8.13281 10.3496 8.23047 10.6465 8.42578C10.946 8.61849 11.0957 8.90234 11.0957 9.27734ZM9.99805 11.1328C9.99805 10.9609 9.93164 10.8372 9.79883 10.7617C9.66602 10.6836 9.4668 10.6445 9.20117 10.6445H8.25586V11.6758H9.22461C9.47721 11.6758 9.66862 11.6289 9.79883 11.5352C9.93164 11.4388 9.99805 11.3047 9.99805 11.1328ZM9.88867 9.37109C9.88867 9.10547 9.67773 8.97266 9.25586 8.97266H8.25586V9.83594H9.11914C9.37174 9.83594 9.56315 9.79948 9.69336 9.72656C9.82357 9.65365 9.88867 9.53516 9.88867 9.37109ZM15.7949 8.13281V9.02734H14.3652V12.5H13.1738V9.02734H11.7402V8.13281H15.7949ZM17.5605 10.3086C17.5605 10.7409 17.6309 11.0677 17.7715 11.2891C17.9147 11.5104 18.1465 11.6211 18.4668 11.6211C18.7845 11.6211 19.0124 11.5117 19.1504 11.293C19.291 11.0716 19.3613 10.7435 19.3613 10.3086C19.3613 9.8763 19.291 9.55208 19.1504 9.33594C19.0098 9.11979 18.7793 9.01172 18.459 9.01172C18.1413 9.01172 17.9121 9.11979 17.7715 9.33594C17.6309 9.54948 17.5605 9.8737 17.5605 10.3086ZM20.5801 10.3086C20.5801 11.0195 20.3926 11.5755 20.0176 11.9766C19.6426 12.3776 19.1204 12.5781 18.4512 12.5781C18.0319 12.5781 17.6621 12.487 17.3418 12.3047C17.0215 12.1198 16.7754 11.8555 16.6035 11.5117C16.4316 11.168 16.3457 10.7669 16.3457 10.3086C16.3457 9.59505 16.5319 9.04036 16.9043 8.64453C17.2767 8.2487 17.8001 8.05078 18.4746 8.05078C18.8939 8.05078 19.2637 8.14193 19.584 8.32422C19.9043 8.50651 20.1504 8.76823 20.3223 9.10938C20.4941 9.45052 20.5801 9.85026 20.5801 10.3086ZM25.1777 8.13281V9.02734H23.748V12.5H22.5566V9.02734H21.123V8.13281H25.1777ZM32.0254 10.3086C32.0254 11.0247 31.8444 11.582 31.4824 11.9805C31.1204 12.3789 30.6191 12.5781 29.9785 12.5781C29.403 12.5781 28.9421 12.4167 28.5957 12.0938C28.252 11.7708 28.0436 11.306 27.9707 10.6992H27.1855V12.5H25.9941V8.13281H27.1855V9.8125H27.9863C28.0618 9.25521 28.2767 8.82292 28.6309 8.51562C28.9876 8.20573 29.4447 8.05078 30.002 8.05078C30.6191 8.05078 31.11 8.25391 31.4746 8.66016C31.8418 9.0638 32.0254 9.61328 32.0254 10.3086ZM29.1699 10.3086C29.1699 10.7435 29.2337 11.0716 29.3613 11.293C29.4889 11.5117 29.6999 11.6211 29.9941 11.6211C30.2832 11.6211 30.4915 11.5117 30.6191 11.293C30.7467 11.0716 30.8105 10.7435 30.8105 10.3086C30.8105 9.8737 30.7454 9.54948 30.6152 9.33594C30.4876 9.11979 30.278 9.01172 29.9863 9.01172C29.6973 9.01172 29.4889 9.11979 29.3613 9.33594C29.2337 9.55208 29.1699 9.8763 29.1699 10.3086ZM34.1621 8.13281V9.85938C34.1621 10.0417 34.1322 10.487 34.0723 11.1953L36.0879 8.13281H37.5215V12.5H36.3691V10.7578C36.3691 10.4479 36.3952 10.0104 36.4473 9.44531L34.4395 12.5H33.0098V8.13281H34.1621ZM39.9668 8.13281V9.8125H41.6309V8.13281H42.8223V12.5H41.6309V10.6992H39.9668V12.5H38.7754V8.13281H39.9668ZM47.0879 8.13281V9.02734H45.2637V12.5H44.0723V8.13281H47.0879ZM50.6738 12.5L50.4434 11.9062H50.4121C50.2116 12.1589 50.0046 12.3346 49.791 12.4336C49.5801 12.5299 49.304 12.5781 48.9629 12.5781C48.5436 12.5781 48.2129 12.4583 47.9707 12.2188C47.7311 11.9792 47.6113 11.638 47.6113 11.1953C47.6113 10.7318 47.7728 10.3906 48.0957 10.1719C48.4212 9.95052 48.9108 9.82812 49.5645 9.80469L50.3223 9.78125V9.58984C50.3223 9.14714 50.0957 8.92578 49.6426 8.92578C49.2936 8.92578 48.8835 9.03125 48.4121 9.24219L48.0176 8.4375C48.5202 8.17448 49.0775 8.04297 49.6895 8.04297C50.2754 8.04297 50.7246 8.17057 51.0371 8.42578C51.3496 8.68099 51.5059 9.06901 51.5059 9.58984V12.5H50.6738ZM50.3223 10.4766L49.8613 10.4922C49.515 10.5026 49.2572 10.5651 49.0879 10.6797C48.9186 10.7943 48.834 10.9688 48.834 11.2031C48.834 11.5391 49.0267 11.707 49.4121 11.707C49.6882 11.707 49.9082 11.6276 50.0723 11.4688C50.2389 11.3099 50.3223 11.099 50.3223 10.8359V10.4766Z" fill="#4F4F4F"/>
</svg>
