<svg width="440" height="35" viewBox="0 0 440 35" fill="none" xmlns="http://www.w3.org/2000/svg">
<path d="M22.375 3V27.5H16.74V7.62H5.68V27.5H0.0450002V3H22.375ZM36.4383 27.78C34.455 27.78 32.67 27.3717 31.0833 26.555C29.52 25.715 28.295 24.56 27.4083 23.09C26.5217 21.62 26.0783 19.9517 26.0783 18.085C26.0783 16.2183 26.5217 14.55 27.4083 13.08C28.295 11.61 29.52 10.4667 31.0833 9.65C32.67 8.81 34.455 8.39 36.4383 8.39C38.4217 8.39 40.195 8.81 41.7583 9.65C43.3217 10.4667 44.5467 11.61 45.4333 13.08C46.32 14.55 46.7633 16.2183 46.7633 18.085C46.7633 19.9517 46.32 21.62 45.4333 23.09C44.5467 24.56 43.3217 25.715 41.7583 26.555C40.195 27.3717 38.4217 27.78 36.4383 27.78ZM36.4383 23.3C37.8383 23.3 38.9817 22.8333 39.8683 21.9C40.7783 20.9433 41.2333 19.6717 41.2333 18.085C41.2333 16.4983 40.7783 15.2383 39.8683 14.305C38.9817 13.3483 37.8383 12.87 36.4383 12.87C35.0383 12.87 33.8833 13.3483 32.9733 14.305C32.0633 15.2383 31.6083 16.4983 31.6083 18.085C31.6083 19.6717 32.0633 20.9433 32.9733 21.9C33.8833 22.8333 35.0383 23.3 36.4383 23.3ZM70.9403 23.02V31.56H65.8653V27.5H52.6353V31.56H47.5603V23.02H48.3303C49.4969 22.9967 50.3019 22.3083 50.7453 20.955C51.1886 19.6017 51.4686 17.6767 51.5853 15.18L51.8303 8.67H68.2453V23.02H70.9403ZM56.5203 15.565C56.4503 17.4783 56.2986 19.0417 56.0653 20.255C55.8553 21.4683 55.4469 22.39 54.8403 23.02H62.7853V13.15H56.6253L56.5203 15.565ZM84.8513 9.965C86.648 9.965 88.223 10.3383 89.5763 11.085C90.9296 11.8083 91.968 12.835 92.6913 14.165C93.438 15.495 93.8113 17.035 93.8113 18.785C93.8113 20.5817 93.368 22.18 92.4813 23.58C91.618 24.9567 90.4046 26.03 88.8413 26.8C87.278 27.5467 85.5046 27.92 83.5213 27.92C80.2313 27.92 77.6413 26.87 75.7513 24.77C73.8846 22.6467 72.9513 19.5433 72.9513 15.46C72.9513 11.68 73.768 8.67 75.4013 6.43C77.058 4.16666 79.5896 2.685 82.9963 1.985L91.9563 0.199999L92.6913 4.89L84.7813 6.465C82.6346 6.885 81.0363 7.585 79.9863 8.565C78.9596 9.545 78.353 10.9333 78.1663 12.73C78.983 11.8433 79.963 11.1667 81.1063 10.7C82.2496 10.21 83.498 9.965 84.8513 9.965ZM83.5563 23.685C84.9563 23.685 86.0763 23.23 86.9163 22.32C87.7796 21.41 88.2113 20.255 88.2113 18.855C88.2113 17.4317 87.7796 16.3 86.9163 15.46C86.0763 14.62 84.9563 14.2 83.5563 14.2C82.133 14.2 80.9896 14.62 80.1263 15.46C79.263 16.3 78.8313 17.4317 78.8313 18.855C78.8313 20.2783 79.2746 21.445 80.1613 22.355C81.048 23.2417 82.1796 23.685 83.5563 23.685ZM105.926 27.78C103.943 27.78 102.158 27.3717 100.571 26.555C99.0078 25.715 97.7828 24.56 96.8961 23.09C96.0094 21.62 95.5661 19.9517 95.5661 18.085C95.5661 16.2183 96.0094 14.55 96.8961 13.08C97.7828 11.61 99.0078 10.4667 100.571 9.65C102.158 8.81 103.943 8.39 105.926 8.39C107.909 8.39 109.683 8.81 111.246 9.65C112.809 10.4667 114.034 11.61 114.921 13.08C115.808 14.55 116.251 16.2183 116.251 18.085C116.251 19.9517 115.808 21.62 114.921 23.09C114.034 24.56 112.809 25.715 111.246 26.555C109.683 27.3717 107.909 27.78 105.926 27.78ZM105.926 23.3C107.326 23.3 108.469 22.8333 109.356 21.9C110.266 20.9433 110.721 19.6717 110.721 18.085C110.721 16.4983 110.266 15.2383 109.356 14.305C108.469 13.3483 107.326 12.87 105.926 12.87C104.526 12.87 103.371 13.3483 102.461 14.305C101.551 15.2383 101.096 16.4983 101.096 18.085C101.096 19.6717 101.551 20.9433 102.461 21.9C103.371 22.8333 104.526 23.3 105.926 23.3ZM130.691 8.39C132.441 8.39 134.028 8.79833 135.451 9.615C136.898 10.4083 138.03 11.54 138.846 13.01C139.663 14.4567 140.071 16.1483 140.071 18.085C140.071 20.0217 139.663 21.725 138.846 23.195C138.03 24.6417 136.898 25.7733 135.451 26.59C134.028 27.3833 132.441 27.78 130.691 27.78C128.288 27.78 126.398 27.0217 125.021 25.505V34.29H119.561V8.67H124.776V10.84C126.13 9.20667 128.101 8.39 130.691 8.39ZM129.746 23.3C131.146 23.3 132.29 22.8333 133.176 21.9C134.086 20.9433 134.541 19.6717 134.541 18.085C134.541 16.4983 134.086 15.2383 133.176 14.305C132.29 13.3483 131.146 12.87 129.746 12.87C128.346 12.87 127.191 13.3483 126.281 14.305C125.395 15.2383 124.951 16.4983 124.951 18.085C124.951 19.6717 125.395 20.9433 126.281 21.9C127.191 22.8333 128.346 23.3 129.746 23.3ZM171.715 8.67V27.5H166.255V13.15H158.415V27.5H152.99V8.67H171.715ZM185.36 27.78C183.377 27.78 181.592 27.3717 180.005 26.555C178.442 25.715 177.217 24.56 176.33 23.09C175.444 21.62 175 19.9517 175 18.085C175 16.2183 175.444 14.55 176.33 13.08C177.217 11.61 178.442 10.4667 180.005 9.65C181.592 8.81 183.377 8.39 185.36 8.39C187.344 8.39 189.117 8.81 190.68 9.65C192.244 10.4667 193.469 11.61 194.355 13.08C195.242 14.55 195.685 16.2183 195.685 18.085C195.685 19.9517 195.242 21.62 194.355 23.09C193.469 24.56 192.244 25.715 190.68 26.555C189.117 27.3717 187.344 27.78 185.36 27.78ZM185.36 23.3C186.76 23.3 187.904 22.8333 188.79 21.9C189.7 20.9433 190.155 19.6717 190.155 18.085C190.155 16.4983 189.7 15.2383 188.79 14.305C187.904 13.3483 186.76 12.87 185.36 12.87C183.96 12.87 182.805 13.3483 181.895 14.305C180.985 15.2383 180.53 16.4983 180.53 18.085C180.53 19.6717 180.985 20.9433 181.895 21.9C182.805 22.8333 183.96 23.3 185.36 23.3ZM215.848 8.39C218.764 8.39 221.004 9.09 222.568 10.49C224.131 11.8667 224.913 13.955 224.913 16.755V27.5H219.803V25.155C218.776 26.905 216.863 27.78 214.063 27.78C212.616 27.78 211.356 27.535 210.283 27.045C209.233 26.555 208.428 25.8783 207.868 25.015C207.308 24.1517 207.028 23.1717 207.028 22.075C207.028 20.325 207.681 18.9483 208.988 17.945C210.318 16.9417 212.359 16.44 215.113 16.44H219.453C219.453 15.25 219.091 14.34 218.368 13.71C217.644 13.0567 216.559 12.73 215.113 12.73C214.109 12.73 213.118 12.8933 212.138 13.22C211.181 13.5233 210.364 13.9433 209.688 14.48L207.728 10.665C208.754 9.94167 209.979 9.38167 211.403 8.985C212.849 8.58833 214.331 8.39 215.848 8.39ZM215.428 24.105C216.361 24.105 217.189 23.895 217.913 23.475C218.636 23.0317 219.149 22.39 219.453 21.55V19.625H215.708C213.468 19.625 212.348 20.36 212.348 21.83C212.348 22.53 212.616 23.09 213.153 23.51C213.713 23.9067 214.471 24.105 215.428 24.105ZM243.631 17.665C245.848 18.4117 246.956 19.905 246.956 22.145C246.956 23.8483 246.314 25.1667 245.031 26.1C243.748 27.0333 241.834 27.5 239.291 27.5H229.246V8.67H238.871C241.228 8.67 243.071 9.10167 244.401 9.965C245.731 10.805 246.396 11.995 246.396 13.535C246.396 14.4683 246.151 15.2967 245.661 16.02C245.194 16.72 244.518 17.2683 243.631 17.665ZM234.251 16.405H238.381C240.294 16.405 241.251 15.7283 241.251 14.375C241.251 13.045 240.294 12.38 238.381 12.38H234.251V16.405ZM238.836 23.79C240.843 23.79 241.846 23.1017 241.846 21.725C241.846 21.0017 241.613 20.4767 241.146 20.15C240.679 19.8 239.944 19.625 238.941 19.625H234.251V23.79H238.836ZM266.428 13.15H260.058V27.5H254.633V13.15H248.263V8.67H266.428V13.15ZM276.963 27.78C274.979 27.78 273.194 27.3717 271.608 26.555C270.044 25.715 268.819 24.56 267.933 23.09C267.046 21.62 266.603 19.9517 266.603 18.085C266.603 16.2183 267.046 14.55 267.933 13.08C268.819 11.61 270.044 10.4667 271.608 9.65C273.194 8.81 274.979 8.39 276.963 8.39C278.946 8.39 280.719 8.81 282.283 9.65C283.846 10.4667 285.071 11.61 285.958 13.08C286.844 14.55 287.288 16.2183 287.288 18.085C287.288 19.9517 286.844 21.62 285.958 23.09C285.071 24.56 283.846 25.715 282.283 26.555C280.719 27.3717 278.946 27.78 276.963 27.78ZM276.963 23.3C278.363 23.3 279.506 22.8333 280.393 21.9C281.303 20.9433 281.758 19.6717 281.758 18.085C281.758 16.4983 281.303 15.2383 280.393 14.305C279.506 13.3483 278.363 12.87 276.963 12.87C275.563 12.87 274.408 13.3483 273.498 14.305C272.588 15.2383 272.133 16.4983 272.133 18.085C272.133 19.6717 272.588 20.9433 273.498 21.9C274.408 22.8333 275.563 23.3 276.963 23.3ZM309.008 27.5V16.23L303.373 25.68H301.063L295.568 16.195V27.5H290.633V8.67H296.338L302.358 19.555L308.763 8.67H313.873L313.943 27.5H309.008ZM327.583 27.78C325.6 27.78 323.815 27.3717 322.228 26.555C320.665 25.715 319.44 24.56 318.553 23.09C317.666 21.62 317.223 19.9517 317.223 18.085C317.223 16.2183 317.666 14.55 318.553 13.08C319.44 11.61 320.665 10.4667 322.228 9.65C323.815 8.81 325.6 8.39 327.583 8.39C329.566 8.39 331.34 8.81 332.903 9.65C334.466 10.4667 335.691 11.61 336.578 13.08C337.465 14.55 337.908 16.2183 337.908 18.085C337.908 19.9517 337.465 21.62 336.578 23.09C335.691 24.56 334.466 25.715 332.903 26.555C331.34 27.3717 329.566 27.78 327.583 27.78ZM327.583 23.3C328.983 23.3 330.126 22.8333 331.013 21.9C331.923 20.9433 332.378 19.6717 332.378 18.085C332.378 16.4983 331.923 15.2383 331.013 14.305C330.126 13.3483 328.983 12.87 327.583 12.87C326.183 12.87 325.028 13.3483 324.118 14.305C323.208 15.2383 322.753 16.4983 322.753 18.085C322.753 19.6717 323.208 20.9433 324.118 21.9C325.028 22.8333 326.183 23.3 327.583 23.3ZM352.138 9.965C353.935 9.965 355.51 10.3383 356.863 11.085C358.217 11.8083 359.255 12.835 359.978 14.165C360.725 15.495 361.098 17.035 361.098 18.785C361.098 20.5817 360.655 22.18 359.768 23.58C358.905 24.9567 357.692 26.03 356.128 26.8C354.565 27.5467 352.792 27.92 350.808 27.92C347.518 27.92 344.928 26.87 343.038 24.77C341.172 22.6467 340.238 19.5433 340.238 15.46C340.238 11.68 341.055 8.67 342.688 6.43C344.345 4.16666 346.877 2.685 350.283 1.985L359.243 0.199999L359.978 4.89L352.068 6.465C349.922 6.885 348.323 7.585 347.273 8.565C346.247 9.545 345.64 10.9333 345.453 12.73C346.27 11.8433 347.25 11.1667 348.393 10.7C349.537 10.21 350.785 9.965 352.138 9.965ZM350.843 23.685C352.243 23.685 353.363 23.23 354.203 22.32C355.067 21.41 355.498 20.255 355.498 18.855C355.498 17.4317 355.067 16.3 354.203 15.46C353.363 14.62 352.243 14.2 350.843 14.2C349.42 14.2 348.277 14.62 347.413 15.46C346.55 16.3 346.118 17.4317 346.118 18.855C346.118 20.2783 346.562 21.445 347.448 22.355C348.335 23.2417 349.467 23.685 350.843 23.685ZM364.393 8.67H369.818V19.87L378.988 8.67H383.993V27.5H378.568V16.3L369.433 27.5H364.393V8.67ZM406.892 8.67V27.5H401.432V13.15H395.482L395.307 16.475C395.214 18.9483 394.98 21.0017 394.607 22.635C394.234 24.2683 393.627 25.5517 392.787 26.485C391.947 27.4183 390.78 27.885 389.287 27.885C388.494 27.885 387.549 27.745 386.452 27.465L386.732 22.985C387.105 23.0317 387.374 23.055 387.537 23.055C388.354 23.055 388.96 22.7633 389.357 22.18C389.777 21.5733 390.057 20.815 390.197 19.905C390.337 18.9717 390.442 17.7467 390.512 16.23L390.792 8.67H406.892ZM429.547 8.39C431.461 8.39 433.176 8.81 434.692 9.65C436.209 10.4667 437.399 11.61 438.262 13.08C439.126 14.55 439.557 16.2183 439.557 18.085C439.557 19.9517 439.126 21.62 438.262 23.09C437.399 24.56 436.209 25.715 434.692 26.555C433.176 27.3717 431.461 27.78 429.547 27.78C427.891 27.78 426.374 27.4767 424.997 26.87C423.621 26.24 422.477 25.365 421.567 24.245C420.657 23.1017 420.051 21.795 419.747 20.325H417.157V27.5H411.732V8.67H417.157V15.6H419.782C420.319 13.4067 421.462 11.6567 423.212 10.35C424.962 9.04333 427.074 8.39 429.547 8.39ZM429.547 23.3C430.877 23.3 431.974 22.8333 432.837 21.9C433.724 20.9433 434.167 19.6717 434.167 18.085C434.167 16.475 433.724 15.2033 432.837 14.27C431.974 13.3367 430.877 12.87 429.547 12.87C428.194 12.87 427.074 13.3367 426.187 14.27C425.324 15.2033 424.892 16.475 424.892 18.085C424.892 19.6717 425.324 20.9433 426.187 21.9C427.074 22.8333 428.194 23.3 429.547 23.3Z" fill="#F05454"/>
</svg>
