<svg width="39" height="21" viewBox="0 0 39 21" fill="none" xmlns="http://www.w3.org/2000/svg">
<path d="M4.89861 0.246582L0.966389 12.1407C0.966389 12.1407 0.221834 14.5502 1.5462 14.821C3.12726 15.1444 4.81304 15.1181 5.97777 15.084C6.6789 15.0655 7.12716 15.0301 7.12716 15.0301L7.65589 13.4526L10.6852 4.38217C11.0862 3.20959 10.9585 3.47249 12.0287 3.40677H29.4191C29.3632 3.81786 29.2674 4.22214 29.133 4.61353C28.059 7.88545 24.999 10.0242 21.6441 9.92827L18.883 9.91381L17.6697 14.449L22.5227 20.3645H31.3348L26.0348 13.5946H26.4179C26.4179 13.5946 34.783 13.5288 38.6143 0.251837L4.89861 0.246582Z" fill="#1D1D1B"/>
</svg>
