<svg width="35" height="21" viewBox="0 0 35 21" fill="none" xmlns="http://www.w3.org/2000/svg">
<path d="M4.58991 0.205637L11.3663 0.180664C9.97421 4.18611 7.49022 11.1362 7.32931 11.9932C7.01514 13.6746 7.10581 14.6933 7.72649 15.4295C8.39697 16.2182 9.4557 16.4299 10.2948 16.4667C11.941 16.5219 14.4952 16.6126 16.1554 16.4811C16.1554 16.4811 16.2538 16.5771 16.6663 15.5609L20.1783 5.11024H34.7374C34.7374 5.11024 34.2265 8.00226 31.2892 8.26517C29.4979 8.42371 27.6987 8.46498 25.9023 8.38873L21.9663 20.4905L5.49155 20.622C4.3728 20.5431 2.59889 20.2197 1.38947 18.8539C0.112355 17.4079 0.205584 15.0101 0.344789 13.8586C0.388211 13.4984 1.10467 10.3869 1.21323 10.0464L4.58991 0.205637Z" fill="#D9211C"/>
</svg>
